<?xml version="1.0" encoding="UTF-8" standalone="no"?>
<!-- Created with Inkscape (http://www.inkscape.org/) -->
<svg id="svg2" xmlns:rdf="http://www.w3.org/1999/02/22-rdf-syntax-ns#" style="enable-background:new" xmlns="http://www.w3.org/2000/svg" xmlns:osb="http://www.openswatchbook.org/uri/2009/osb" height="202mm" width="262.46mm" version="1.1" xmlns:cc="http://creativecommons.org/ns#" viewBox="0 0 929.96016 715.74922" xmlns:dc="http://purl.org/dc/elements/1.1/">
 <metadata id="metadata7">
  <rdf:RDF>
   <cc:Work rdf:about="">
    <dc:format>image/svg+xml</dc:format>
    <dc:type rdf:resource="http://purl.org/dc/dcmitype/StillImage"/>
    <dc:title/>
   </cc:Work>
  </rdf:RDF>
 </metadata>
 <g id="layer2" display="none">
  <flowRoot id="flowRoot4064-4" style="letter-spacing:10.02px;text-anchor:middle;word-spacing:0px;enable-background:new;text-align:center" font-family="minim" xml:space="preserve" display="inline" font-size="140px" transform="translate(600.61 -94.056)" line-height="100%" font-weight="100" fill="#000000"><flowRegion id="flowRegion4066-6"><rect id="rect4068-3" ry="26.575" height="159.45" width="920.58" y="684.91" x="-590.57" fill="#000"/></flowRegion><flowPara id="flowPara4070-0" style="letter-spacing:10.02px;text-anchor:middle;text-align:center" font-weight="100" font-size="140px" line-height="100%" font-family="minim" fill="#000000">HERNANDEZ</flowPara></flowRoot>
 </g>
 <g id="layer1" transform="translate(619.35 -155.68)">
  <g id="g4059" stroke="#000" stroke-width="13" fill="none">
   <path id="path3717" opacity="0.92" d="m-613.72 698.03 306.86-531.49 214.8 230.31-122.74 70.87 214.8 230.31 306.86-531.49"/>
   <path id="path3721" d="m-521.66 538.58h122.74"/>
   <path id="path3723" d="m214.8 325.98h-122.74"/>
  </g>
  <g>
   <g id="flowRoot4064" transform="translate(-18.733 61.311)">
    <path id="path4002" d="m-504.51 757.56v43.4 5.6h-11.2v-5.6-43.4h-58.8v43.4 5.6h-11.2v-5.6-43.4-11.2-43.4-5.6h11.2v5.6 43.4h58.8v-43.4-5.6h11.2v5.6 43.4 11.2z"/>
    <path id="path4004" d="m-479.03 697.36h5.6 64.4 5.6v11.2h-5.6-64.4v37.8h64.4 5.6v11.2h-5.6-64.4v37.8h64.4 5.6v11.2h-5.6-64.4-5.6-5.6v-5.6-5.6-37.8-11.2-37.8-5.6-5.6h5.6z"/>
    <path id="path4006" d="m-360.18 757.56 55.44 38.78 4.62 3.22-6.44 9.24-4.62-3.22-61.18-42.7v38.08 5.6h-11.2v-5.6-43.4-2.52l-2.24-1.68 2.24-3.08v-3.92-37.8-5.6-5.6h5.6 5.6 58.8 5.6 5.6v5.6 5.6 37.8 5.6 5.6h-5.6-5.6-46.62zm46.62-11.2v-37.8h-58.8v37.8h58.8z"/>
    <path id="path4008" d="m-212.48 697.36h5.6 5.6v5.6 5.6 92.4 5.6h-11.2v-5.6-92.4h-58.8v92.4 5.6h-11.2v-5.6-92.4-5.6-5.6h5.6 5.6 58.8z"/>
    <path id="path4010" d="m-100.21 757.56v43.4 5.6h-11.2v-5.6-43.4h-58.8v43.4 5.6h-11.2v-5.6-43.4-11.2-37.8-5.6-5.6h5.6 5.6 58.8 5.6 5.6v5.6 5.6 37.8 11.2zm-11.2-11.2v-37.8h-58.8v37.8h58.8z"/>
    <path id="path4012" d="m-10.333 697.36h5.6 5.6v5.6 5.6 92.4 5.6h-11.2v-5.6-92.4h-58.8v92.4 5.6h-11.2v-5.6-92.4-5.6-5.6h5.6 5.6 58.8z"/>
    <path id="path4014" d="m86.402 751.96-54.46-38.08v76.3l54.46-38.22zm9.94-6.86 1.4-0.98 2.52 3.92 3.92 2.52-0.98 1.4 0.98 1.4-3.92 2.66-2.52 3.78-1.4-0.84-64.4 45.08v2.52h-3.92l-3.08 2.24-1.68-2.24h-2.52v-3.78l-2.24-3.22 2.24-1.54v-91.98l-2.24-1.68 2.24-3.08v-3.92h2.52l1.68-2.24 3.08 2.24h3.92v2.66l64.4 45.08z"/>
    <path id="path4016" d="m127.42 697.36h5.6 64.4 5.6v11.2h-5.6-64.4v37.8h64.4 5.6v11.2h-5.6-64.4v37.8h64.4 5.6v11.2h-5.6-64.4-5.6-5.6v-5.6-5.6-37.8-11.2-37.8-5.6-5.6h5.6z"/>
    <path id="path4018" d="m239.41 795.36h59.08 5.6v11.2h-5.6-67.2l-1.54 2.24-3.22-2.24h-3.64v-2.66l-2.24-1.68 2.24-3.08v-3.78h2.66l62.02-86.8h-59.08-5.6v-11.2h5.6 67.06l1.68-2.24 3.08 2.24h3.78v2.8l2.24 1.54-2.24 3.22v3.64h-2.8l-61.88 86.8z"/>
   </g>
   <text id="text3825" style="word-spacing:0px;letter-spacing:0px" xml:space="preserve" font-size="40px" y="719.25031" x="495.94162" font-family="sans-serif" line-height="125%" fill="#000000"><tspan id="tspan3827" x="495.94162" y="719.25031"/></text>
   <text id="text3997" style="word-spacing:0px;letter-spacing:0px" xml:space="preserve" font-size="40px" y="1025.683" x="-551.23529" font-family="sans-serif" line-height="125%" fill="#000000"><tspan id="tspan3999" x="-551.23529" y="1025.683"/></text>
  </g>
 </g>
</svg>
