<?xml version="1.0" encoding="UTF-8" standalone="no"?>
<svg
   xmlns:osb="http://www.openswatchbook.org/uri/2009/osb"
   xmlns:dc="http://purl.org/dc/elements/1.1/"
   xmlns:cc="http://creativecommons.org/ns#"
   xmlns:rdf="http://www.w3.org/1999/02/22-rdf-syntax-ns#"
   xmlns:svg="http://www.w3.org/2000/svg"
   xmlns="http://www.w3.org/2000/svg"
   shape-rendering="crispEdges"
   style="enable-background:new"
   version="1.1"
   id="svg2"
   viewBox="0 0 929.96017 715.74922"
   height="202.00034mm"
   width="262.45541mm">
  <defs
     id="defs4">
    <linearGradient
       osb:paint="solid"
       id="linearGradient3913">
      <stop
         id="stop3915"
         offset="0"
         style="stop-color:#000000;stop-opacity:1;" />
    </linearGradient>
    <marker
       style="overflow:visible"
       id="marker4080"
       refX="0"
       refY="0"
       orient="auto">
      <path
         transform="matrix(0.4,0,0,0.4,4,0)"
         style="fill-rule:evenodd;stroke:#000000;stroke-width:1pt"
         d="M 0,0 5,-5 -12.5,0 5,5 0,0 Z"
         id="path4082" />
    </marker>
    <marker
       style="overflow:visible"
       id="marker4076"
       refX="0"
       refY="0"
       orient="auto">
      <path
         transform="matrix(-0.8,0,0,-0.8,-10,0)"
         style="fill-rule:evenodd;stroke:#000000;stroke-width:1pt"
         d="M 0,0 5,-5 -12.5,0 5,5 0,0 Z"
         id="path4078" />
    </marker>
    <marker
       style="overflow:visible"
       id="marker4072"
       refX="0"
       refY="0"
       orient="auto">
      <path
         transform="matrix(0.8,0,0,0.8,10,0)"
         style="fill-rule:evenodd;stroke:#000000;stroke-width:1pt"
         d="M 0,0 5,-5 -12.5,0 5,5 0,0 Z"
         id="path4074" />
    </marker>
    <marker
       style="overflow:visible"
       id="marker4009"
       refX="0"
       refY="0"
       orient="auto">
      <path
         transform="matrix(-1.1,0,0,-1.1,-1.1,0)"
         d="M 8.7185878,4.0337352 -2.2072895,0.01601326 8.7185884,-4.0017078 c -1.7454984,2.3720609 -1.7354408,5.6174519 -6e-7,8.035443 z"
         style="fill-rule:evenodd;stroke-width:0.625;stroke-linejoin:round"
         id="path3760" />
    </marker>
    <marker
       style="overflow:visible"
       id="Arrow2Lstart"
       refX="0"
       refY="0"
       orient="auto">
      <path
         transform="matrix(1.1,0,0,1.1,1.1,0)"
         d="M 8.7185878,4.0337352 -2.2072895,0.01601326 8.7185884,-4.0017078 c -1.7454984,2.3720609 -1.7354408,5.6174519 -6e-7,8.035443 z"
         style="fill-rule:evenodd;stroke-width:0.625;stroke-linejoin:round"
         id="path3757" />
    </marker>
    <marker
       style="overflow:visible"
       id="Arrow1Send"
       refX="0"
       refY="0"
       orient="auto">
      <path
         transform="matrix(-0.2,0,0,-0.2,-1.2,0)"
         style="fill-rule:evenodd;stroke:#000000;stroke-width:1pt"
         d="M 0,0 5,-5 -12.5,0 5,5 0,0 Z"
         id="path3754" />
    </marker>
    <marker
       style="overflow:visible"
       id="Arrow1Sstart"
       refX="0"
       refY="0"
       orient="auto">
      <path
         transform="matrix(0.2,0,0,0.2,1.2,0)"
         style="fill-rule:evenodd;stroke:#000000;stroke-width:1pt"
         d="M 0,0 5,-5 -12.5,0 5,5 0,0 Z"
         id="path3751" />
    </marker>
    <marker
       style="overflow:visible"
       id="Arrow1Mend"
       refX="0"
       refY="0"
       orient="auto">
      <path
         transform="matrix(-0.4,0,0,-0.4,-4,0)"
         style="fill-rule:evenodd;stroke:#000000;stroke-width:1pt"
         d="M 0,0 5,-5 -12.5,0 5,5 0,0 Z"
         id="path3748" />
    </marker>
    <marker
       style="overflow:visible"
       id="Arrow1Mstart"
       refX="0"
       refY="0"
       orient="auto">
      <path
         transform="matrix(0.4,0,0,0.4,4,0)"
         style="fill-rule:evenodd;stroke:#000000;stroke-width:1pt"
         d="M 0,0 5,-5 -12.5,0 5,5 0,0 Z"
         id="path3745" />
    </marker>
    <marker
       style="overflow:visible"
       id="Arrow1Lend"
       refX="0"
       refY="0"
       orient="auto">
      <path
         transform="matrix(-0.8,0,0,-0.8,-10,0)"
         style="fill-rule:evenodd;stroke:#000000;stroke-width:1pt"
         d="M 0,0 5,-5 -12.5,0 5,5 0,0 Z"
         id="path3742" />
    </marker>
    <marker
       style="overflow:visible"
       id="Arrow1Lstart"
       refX="0"
       refY="0"
       orient="auto">
      <path
         transform="matrix(0.8,0,0,0.8,10,0)"
         style="fill-rule:evenodd;stroke:#000000;stroke-width:1pt"
         d="M 0,0 5,-5 -12.5,0 5,5 0,0 Z"
         id="path3739" />
    </marker>
    <marker
       style="overflow:visible"
       id="DiamondSstart"
       refX="0"
       refY="0"
       orient="auto">
      <path
         transform="matrix(0.2,0,0,0.2,1.2,0)"
         style="fill:#000000;fill-opacity:1;fill-rule:evenodd;stroke:#000000;stroke-width:1pt;stroke-opacity:1"
         d="M 0,-7.0710768 -7.0710894,0 0,7.0710589 7.0710462,0 0,-7.0710768 Z"
         id="path3851" />
    </marker>
    <marker
       style="overflow:visible"
       id="Arrow2Lend"
       refX="0"
       refY="0"
       orient="auto">
      <path
         transform="matrix(-1.1,0,0,-1.1,-1.1,0)"
         d="M 8.7185878,4.0337352 -2.2072895,0.01601326 8.7185884,-4.0017078 c -1.7454984,2.3720609 -1.7354408,5.6174519 -6e-7,8.035443 z"
         style="fill:#000000;fill-opacity:1;fill-rule:evenodd;stroke:#000000;stroke-width:0.625;stroke-linejoin:round;stroke-opacity:1"
         id="path3778" />
    </marker>
  </defs>
  <metadata
     id="metadata7">
    <rdf:RDF>
      <cc:Work
         rdf:about="">
        <dc:format>image/svg+xml</dc:format>
        <dc:type
           rdf:resource="http://purl.org/dc/dcmitype/StillImage" />
        <dc:title></dc:title>
        <cc:license
           rdf:resource="" />
      </cc:Work>
    </rdf:RDF>
  </metadata>
  <g
     style="display:none"
     id="layer2">
    <flowRoot
       transform="translate(600.60594,-94.055751)"
       style="font-style:normal;font-variant:normal;font-weight:100;font-stretch:normal;font-size:140px;line-height:100%;font-family:minim;-inkscape-font-specification:'minim, Thin';text-align:center;letter-spacing:10.01999855px;word-spacing:0px;writing-mode:lr-tb;text-anchor:middle;display:inline;fill:#000000;fill-opacity:1;stroke:none;stroke-width:1px;stroke-linecap:butt;stroke-linejoin:miter;stroke-opacity:1;enable-background:new"
       id="flowRoot4064-4"
       xml:space="preserve"><flowRegion
         id="flowRegion4066-6"><rect
           ry="26.574806"
           style="font-style:normal;font-variant:normal;font-weight:100;font-stretch:normal;font-size:140px;line-height:100%;font-family:minim;-inkscape-font-specification:'minim, Thin';text-align:center;letter-spacing:10.01999855px;writing-mode:lr-tb;text-anchor:middle;fill:#000000;stroke:none"
           y="684.90515"
           x="-590.5694"
           height="159.44882"
           width="920.57819"
           id="rect4068-3" /></flowRegion><flowPara
         style="font-style:normal;font-variant:normal;font-weight:100;font-stretch:normal;font-size:140px;line-height:100%;font-family:minim;-inkscape-font-specification:'minim, Thin';text-align:center;letter-spacing:10.01999855px;writing-mode:lr-tb;text-anchor:middle;fill:#000000;stroke:none"
         id="flowPara4070-0">HERNANDEZ</flowPara></flowRoot>  </g>
  <g
     transform="translate(619.34797,-155.67858)"
     style="display:inline"
     id="layer1">
    <g
       style="fill:none;stroke:#000000;stroke-width:13;stroke-miterlimit:4;stroke-dasharray:none"
       id="g4059">
      <path
         style="opacity:0.92000002;fill:none;fill-rule:evenodd;stroke:#000000;stroke-width:13;stroke-linecap:butt;stroke-linejoin:miter;stroke-miterlimit:4;stroke-dasharray:none;stroke-dashoffset:0;stroke-opacity:1"
         d="M -613.7188,698.03149 -306.8594,166.53542 -92.05782,396.85039 -214.80158,467.71653 0,698.03149 306.8594,166.53542 l 0,0 0,0 0,0"
         id="path3717" />
      <path
         style="fill:none;fill-rule:evenodd;stroke:#000000;stroke-width:13;stroke-linecap:butt;stroke-linejoin:miter;stroke-miterlimit:4;stroke-dasharray:none;stroke-opacity:1"
         d="m -521.66098,538.58267 122.74376,0 0,0 0,0 0,0"
         id="path3721" />
      <path
         style="fill:none;fill-rule:evenodd;stroke:#000000;stroke-width:13;stroke-linecap:butt;stroke-linejoin:miter;stroke-miterlimit:4;stroke-dasharray:none;stroke-opacity:1"
         d="m 214.80158,325.98424 -122.74376,0 0,0 0,0"
         id="path3723" />
    </g>
    <g
       id="flowRoot4064"
       style="font-style:normal;font-variant:normal;font-weight:100;font-stretch:normal;font-size:140px;line-height:100%;font-family:minim;-inkscape-font-specification:'minim, Thin';text-align:center;letter-spacing:10.01999855px;word-spacing:0px;writing-mode:lr-tb;text-anchor:middle;fill:#000000;fill-opacity:1;stroke:none;stroke-width:1px;stroke-linecap:butt;stroke-linejoin:miter;stroke-opacity:1"
       transform="translate(-18.733437,61.311392)">
      <path
         id="path4002"
         style="font-style:normal;font-variant:normal;font-weight:100;font-stretch:normal;font-size:140px;line-height:100%;font-family:minim;-inkscape-font-specification:'minim, Thin';text-align:center;letter-spacing:10.01999855px;writing-mode:lr-tb;text-anchor:middle;fill:#000000;stroke:none"
         d="m -504.50638,757.55693 0,43.4 0,5.6 -11.2,0 0,-5.6 0,-43.4 -58.8,0 0,43.4 0,5.6 -11.2,0 0,-5.6 0,-43.4 0,-11.2 0,-43.4 0,-5.6 11.2,0 0,5.6 0,43.4 58.8,0 0,-43.4 0,-5.6 11.2,0 0,5.6 0,43.4 0,11.2 z" />
      <path
         id="path4004"
         style="font-style:normal;font-variant:normal;font-weight:100;font-stretch:normal;font-size:140px;line-height:100%;font-family:minim;-inkscape-font-specification:'minim, Thin';text-align:center;letter-spacing:10.01999855px;writing-mode:lr-tb;text-anchor:middle;fill:#000000;stroke:none"
         d="m -479.03169,697.35693 5.6,0 64.4,0 5.6,0 0,11.2 -5.6,0 -64.4,0 0,37.8 64.4,0 5.6,0 0,11.2 -5.6,0 -64.4,0 0,37.8 64.4,0 5.6,0 0,11.2 -5.6,0 -64.4,0 -5.6,0 -5.6,0 0,-5.6 0,-5.6 0,-37.8 0,-11.2 0,-37.8 0,-5.6 0,-5.6 5.6,0 z" />
      <path
         id="path4006"
         style="font-style:normal;font-variant:normal;font-weight:100;font-stretch:normal;font-size:140px;line-height:100%;font-family:minim;-inkscape-font-specification:'minim, Thin';text-align:center;letter-spacing:10.01999855px;writing-mode:lr-tb;text-anchor:middle;fill:#000000;stroke:none"
         d="m -360.17701,757.55693 55.44,38.78 4.62,3.22 -6.44,9.24 -4.62,-3.22 -61.18,-42.7 0,38.08 0,5.6 -11.2,0 0,-5.6 0,-43.4 0,-2.52 -2.24,-1.68 2.24,-3.08 0,-3.92 0,-37.8 0,-5.6 0,-5.6 5.6,0 5.6,0 58.8,0 5.6,0 5.6,0 0,5.6 0,5.6 0,37.8 0,5.6 0,5.6 -5.6,0 -5.6,0 -46.62,0 z m 46.62,-11.2 0,-37.8 -58.8,0 0,37.8 58.8,0 z" />
      <path
         id="path4008"
         style="font-style:normal;font-variant:normal;font-weight:100;font-stretch:normal;font-size:140px;line-height:100%;font-family:minim;-inkscape-font-specification:'minim, Thin';text-align:center;letter-spacing:10.01999855px;writing-mode:lr-tb;text-anchor:middle;fill:#000000;stroke:none"
         d="m -212.48232,697.35693 5.6,0 5.6,0 0,5.6 0,5.6 0,92.4 0,5.6 -11.2,0 0,-5.6 0,-92.4 -58.8,0 0,92.4 0,5.6 -11.2,0 0,-5.6 0,-92.4 0,-5.6 0,-5.6 5.6,0 5.6,0 58.8,0 z" />
      <path
         id="path4010"
         style="font-style:normal;font-variant:normal;font-weight:100;font-stretch:normal;font-size:140px;line-height:100%;font-family:minim;-inkscape-font-specification:'minim, Thin';text-align:center;letter-spacing:10.01999855px;writing-mode:lr-tb;text-anchor:middle;fill:#000000;stroke:none"
         d="m -100.20764,757.55693 0,43.4 0,5.6 -11.2,0 0,-5.6 0,-43.4 -58.8,0 0,43.4 0,5.6 -11.2,0 0,-5.6 0,-43.4 0,-11.2 0,-37.8 0,-5.6 0,-5.6 5.6,0 5.6,0 58.8,0 5.6,0 5.6,0 0,5.6 0,5.6 0,37.8 0,11.2 z m -11.2,-11.2 0,-37.8 -58.8,0 0,37.8 58.8,0 z" />
      <path
         id="path4012"
         style="font-style:normal;font-variant:normal;font-weight:100;font-stretch:normal;font-size:140px;line-height:100%;font-family:minim;-inkscape-font-specification:'minim, Thin';text-align:center;letter-spacing:10.01999855px;writing-mode:lr-tb;text-anchor:middle;fill:#000000;stroke:none"
         d="m -10.332933,697.35693 5.6,0 5.59999996,0 0,5.6 0,5.6 0,92.4 0,5.6 -11.19999996,0 0,-5.6 0,-92.4 -58.8,0 0,92.4 0,5.6 -11.2,0 0,-5.6 0,-92.4 0,-5.6 0,-5.6 5.6,0 5.6,0 58.8,0 z" />
      <path
         id="path4014"
         style="font-style:normal;font-variant:normal;font-weight:100;font-stretch:normal;font-size:140px;line-height:100%;font-family:minim;-inkscape-font-specification:'minim, Thin';text-align:center;letter-spacing:10.01999855px;writing-mode:lr-tb;text-anchor:middle;fill:#000000;stroke:none"
         d="m 86.401743,751.95693 -54.46,-38.08 0,76.3 54.46,-38.22 z m 9.94,-6.86 1.4,-0.98 2.519997,3.92 3.92,2.52 -0.98,1.4 0.98,1.4 -3.92,2.66 -2.519997,3.78 -1.4,-0.84 -64.4,45.08 0,2.52 -3.92,0 -3.08,2.24 -1.68,-2.24 -2.52,0 0,-3.78 -2.24,-3.22 2.24,-1.54 0,-91.98 -2.24,-1.68 2.24,-3.08 0,-3.92 2.52,0 1.68,-2.24 3.08,2.24 3.92,0 0,2.66 64.4,45.08 z" />
      <path
         id="path4016"
         style="font-style:normal;font-variant:normal;font-weight:100;font-stretch:normal;font-size:140px;line-height:100%;font-family:minim;-inkscape-font-specification:'minim, Thin';text-align:center;letter-spacing:10.01999855px;writing-mode:lr-tb;text-anchor:middle;fill:#000000;stroke:none"
         d="m 127.41645,697.35693 5.6,0 64.4,0 5.6,0 0,11.2 -5.6,0 -64.4,0 0,37.8 64.4,0 5.6,0 0,11.2 -5.6,0 -64.4,0 0,37.8 64.4,0 5.6,0 0,11.2 -5.6,0 -64.4,0 -5.6,0 -5.6,0 0,-5.6 0,-5.6 0,-37.8 0,-11.2 0,-37.8 0,-5.6 0,-5.6 5.6,0 z" />
      <path
         id="path4018"
         style="font-style:normal;font-variant:normal;font-weight:100;font-stretch:normal;font-size:140px;line-height:100%;font-family:minim;-inkscape-font-specification:'minim, Thin';text-align:center;letter-spacing:10.01999855px;writing-mode:lr-tb;text-anchor:middle;fill:#000000;stroke:none"
         d="m 239.4111,795.35693 59.08,0 5.6,0 0,11.2 -5.6,0 -67.2,0 -1.54,2.24 -3.22,-2.24 -3.64,0 0,-2.66 -2.24,-1.68 2.24,-3.08 0,-3.78 2.66,0 62.02,-86.8 -59.08,0 -5.6,0 0,-11.2 5.6,0 67.06,0 1.68,-2.24 3.08,2.24 3.78,0 0,2.8 2.24,1.54 -2.24,3.22 0,3.64 -2.8,0 -61.88,86.8 z" />
    </g>
    <text
       id="text3825"
       y="719.25031"
       x="495.94162"
       style="font-style:normal;font-weight:normal;font-size:40px;line-height:125%;font-family:sans-serif;letter-spacing:0px;word-spacing:0px;fill:#000000;fill-opacity:1;stroke:none;stroke-width:1px;stroke-linecap:butt;stroke-linejoin:miter;stroke-opacity:1"
       xml:space="preserve"><tspan
         y="719.25031"
         x="495.94162"
         id="tspan3827" /></text>
    <text
       id="text3997"
       y="1025.683"
       x="-551.23529"
       style="font-style:normal;font-weight:normal;font-size:40px;line-height:125%;font-family:sans-serif;letter-spacing:0px;word-spacing:0px;fill:#000000;fill-opacity:1;stroke:none;stroke-width:1px;stroke-linecap:butt;stroke-linejoin:miter;stroke-opacity:1"
       xml:space="preserve"><tspan
         y="1025.683"
         x="-551.23529"
         id="tspan3999" /></text>
  </g>
</svg>
